<svg xmlns="http://www.w3.org/2000/svg" viewBox="0 0 340 700" role="img" aria-label="ZMAN app preview (placeholder)">
  <defs>
    <linearGradient id="grad" x1="0" y1="0" x2="1" y2="1">
      <stop offset="0" stop-color="#4F46E5"/>
      <stop offset="1" stop-color="#7C3AED"/>
    </linearGradient>
  </defs>

  <!-- Phone body -->
  <rect x="6" y="6" width="328" height="688" rx="48" fill="#1E1B4B"/>
  <rect x="18" y="18" width="304" height="664" rx="38" fill="#F7F7FC"/>
  <rect x="130" y="30" width="80" height="22" rx="11" fill="#1E1B4B"/>

  <!-- Header card -->
  <rect x="34" y="72" width="272" height="112" rx="22" fill="url(#grad)"/>
  <text x="282" y="118" font-family="Vazirmatn, Tahoma, sans-serif" font-size="30" font-weight="800" fill="#FFFFFF" text-anchor="end">زمان</text>
  <text x="282" y="144" font-family="Vazirmatn, Tahoma, sans-serif" font-size="13" fill="#FFFFFF" opacity="0.85" text-anchor="end">فێربوونی ئینگلیزی</text>
  <!-- XP bar -->
  <rect x="54" y="158" width="150" height="10" rx="5" fill="#FFFFFF" opacity="0.25"/>
  <rect x="54" y="158" width="92" height="10" rx="5" fill="#FFFFFF"/>
  <!-- Streak flame -->
  <g transform="translate(52,96) scale(1.1)" fill="none" stroke="#FDBA74" stroke-width="2" stroke-linecap="round" stroke-linejoin="round">
    <path d="M8.5 14.5A2.5 2.5 0 0 0 11 12c0-1.38-.5-2-1-3-1.072-2.143-.224-4.054 2-6 .5 2.5 2 4.9 4 6.5 2 1.6 3 3.5 3 5.5a7 7 0 1 1-14 0c0-1.153.433-2.294 1-3a2.5 2.5 0 0 0 2.5 2.5z"/>
  </g>
  <text x="90" y="122" font-family="Vazirmatn, Tahoma, sans-serif" font-size="18" font-weight="700" fill="#FFFFFF">٧</text>

  <!-- Lesson path -->
  <path d="M170 262 C 170 300, 116 305, 116 345 C 116 385, 170 395, 170 438 C 170 480, 224 492, 224 532"
        fill="none" stroke="#C7C5E4" stroke-width="5" stroke-linecap="round" stroke-dasharray="1 14"/>

  <!-- Completed lesson -->
  <circle cx="170" cy="240" r="32" fill="#16A34A"/>
  <circle cx="170" cy="240" r="32" fill="none" stroke="#BBF7D0" stroke-width="5"/>
  <path d="M156 240 l10 10 l18 -20" fill="none" stroke="#FFFFFF" stroke-width="6" stroke-linecap="round" stroke-linejoin="round"/>

  <!-- Completed lesson -->
  <circle cx="116" cy="345" r="32" fill="#16A34A"/>
  <circle cx="116" cy="345" r="32" fill="none" stroke="#BBF7D0" stroke-width="5"/>
  <path d="M102 345 l10 10 l18 -20" fill="none" stroke="#FFFFFF" stroke-width="6" stroke-linecap="round" stroke-linejoin="round"/>

  <!-- Current lesson -->
  <circle cx="170" cy="440" r="38" fill="url(#grad)"/>
  <circle cx="170" cy="440" r="38" fill="none" stroke="#C7D2FE" stroke-width="6"/>
  <polygon points="170,420 176,433 191,435 180,445 183,460 170,452 157,460 160,445 149,435 164,433" fill="#FFFFFF"/>

  <!-- Locked lesson -->
  <circle cx="224" cy="534" r="30" fill="#E7E6F2"/>
  <rect x="213" y="528" width="22" height="17" rx="4" fill="#9B99C0"/>
  <path d="M217 528 v-5 a7 7 0 0 1 14 0 v5" fill="none" stroke="#9B99C0" stroke-width="4"/>

  <!-- Hearts row -->
  <g transform="translate(46,588)">
    <path d="M12 20 L4 12 a5 5 0 1 1 8 -6 a5 5 0 1 1 8 6 Z" fill="#DC2626"/>
    <path d="M40 20 L32 12 a5 5 0 1 1 8 -6 a5 5 0 1 1 8 6 Z" fill="#DC2626"/>
    <path d="M68 20 L60 12 a5 5 0 1 1 8 -6 a5 5 0 1 1 8 6 Z" fill="#DC2626"/>
    <path d="M96 20 L88 12 a5 5 0 1 1 8 -6 a5 5 0 1 1 8 6 Z" fill="#FCA5A5"/>
    <path d="M124 20 L116 12 a5 5 0 1 1 8 -6 a5 5 0 1 1 8 6 Z" fill="#FCA5A5"/>
  </g>

  <!-- Bottom nav -->
  <rect x="34" y="626" width="272" height="48" rx="16" fill="#FFFFFF" stroke="#E7E6F2"/>
  <rect x="58" y="642" width="18" height="16" rx="4" fill="#4F46E5"/>
  <circle cx="136" cy="650" r="9" fill="#C7C5E4"/>
  <rect x="196" y="642" width="18" height="16" rx="4" fill="#C7C5E4"/>
  <circle cx="272" cy="650" r="9" fill="#C7C5E4"/>
</svg>
